<svg xmlns="http://www.w3.org/2000/svg" version="1.1" xmlns:xlink="http://www.w3.org/1999/xlink" xmlns:svgjs="http://svgjs.dev/svgjs" viewBox="0 0 33.40637115899905 25.870665337984295"><g transform="matrix(1,0,0,1,2.962462085554213,20.465109859794026)"><g><path d=" M 1.044189 0.964368 L 1.153332 1.207089 C 1.159848 1.2217500000000001 1.176138 1.23804 1.210347 1.23804 C 1.252701 1.23804 1.252701 1.216863 1.252701 1.207089 C 1.252701 1.1973150000000001 1.247814 1.184283 1.247814 1.184283 L 0.726534 0.05049900000000007 C 0.7167600000000001 0.027692999999999968 0.70047 0.006515999999999966 0.664632 0.006515999999999966 C 0.625536 0.006515999999999966 0.615762 0.022806000000000104 0.601101 0.053757000000000055 L 0.08145 1.184283 C 0.08145 1.184283 0.076563 1.194057 0.076563 1.2005730000000001 C 0.076563 1.220121 0.08959500000000001 1.23804 0.118917 1.23804 C 0.159642 1.23804 0.167787 1.223379 0.175932 1.207089 L 0.285075 0.964368 Z M 0.664632 0.12380400000000003 L 1.003464 0.874773 L 0.3258 0.874773 Z M 1.928283729785156 0.956223 C 1.928283729785156 0.881289 1.962492729785156 0.8682570000000001 1.962492729785156 0.84708 C 1.962492729785156 0.83079 1.949460729785156 0.821016 1.925025729785156 0.821016 C 1.885929729785156 0.821016 1.838688729785156 0.860112 1.838688729785156 0.956223 C 1.838688729785156 1.161477 2.017878729785156 1.25433 2.272002729785156 1.25433 C 2.5391587297851563 1.25433 2.729751729785156 1.1126070000000001 2.729751729785156 0.894321 C 2.729751729785156 0.663003 2.513094729785156 0.6076170000000001 2.311098729785156 0.5457150000000001 C 2.081409729785156 0.475668 1.973895729785156 0.43820100000000006 1.973895729785156 0.28670400000000007 C 1.973895729785156 0.15475499999999998 2.099328729785156 0.08959500000000009 2.293179729785156 0.08959500000000009 C 2.469111729785156 0.08959500000000009 2.5587067297851562 0.16127099999999994 2.5587067297851562 0.24435000000000007 C 2.5587067297851562 0.29159100000000004 2.526126729785156 0.31113900000000005 2.526126729785156 0.33720300000000003 C 2.526126729785156 0.35838000000000003 2.542416729785156 0.366525 2.560335729785156 0.366525 C 2.602689729785156 0.366525 2.646672729785156 0.319284 2.646672729785156 0.24272099999999996 C 2.646672729785156 0.11565899999999996 2.527755729785156 0 2.293179729785156 0 C 2.027652729785156 0 1.884300729785156 0.1286910000000001 1.884300729785156 0.30788100000000007 C 1.884300729785156 0.532683 2.083038729785156 0.573408 2.276889729785156 0.636939 C 2.460966729785156 0.697212 2.638527729785156 0.734679 2.638527729785156 0.908982 C 2.638527729785156 1.063737 2.482143729785156 1.164735 2.268744729785156 1.164735 C 2.0618617297851562 1.164735 1.928283729785156 1.0914300000000001 1.928283729785156 0.956223 Z M 4.3111682261718745 0.793323 L 4.3111682261718745 1.2005730000000001 C 4.3111682261718745 1.2005730000000001 4.3111682261718745 1.23804 4.360038226171875 1.23804 C 4.408908226171874 1.23804 4.408908226171874 1.2005730000000001 4.408908226171874 1.2005730000000001 L 4.408908226171874 0.053757000000000055 C 4.408908226171874 0.053757000000000055 4.408908226171874 0.016289999999999916 4.360038226171875 0.016289999999999916 C 4.3111682261718745 0.016289999999999916 4.3111682261718745 0.053757000000000055 4.3111682261718745 0.053757000000000055 L 4.3111682261718745 0.703728 L 3.512958226171875 0.703728 L 3.512958226171875 0.053757000000000055 C 3.512958226171875 0.053757000000000055 3.512958226171875 0.016289999999999916 3.464088226171875 0.016289999999999916 C 3.415218226171875 0.016289999999999916 3.415218226171875 0.053757000000000055 3.415218226171875 0.053757000000000055 L 3.415218226171875 1.2005730000000001 C 3.415218226171875 1.2005730000000001 3.415218226171875 1.23804 3.464088226171875 1.23804 C 3.512958226171875 1.23804 3.512958226171875 1.2005730000000001 3.512958226171875 1.2005730000000001 L 3.512958226171875 0.793323 Z M 5.208417449121093 1.148445 L 5.208417449121093 0.053757000000000055 C 5.208417449121093 0.053757000000000055 5.208417449121093 0.016289999999999916 5.159547449121094 0.016289999999999916 C 5.110677449121093 0.016289999999999916 5.110677449121093 0.053757000000000055 5.110677449121093 0.053757000000000055 L 5.110677449121093 1.20546 C 5.110677449121093 1.225008 5.123709449121094 1.23804 5.143257449121093 1.23804 L 5.824179449121093 1.23804 C 5.824179449121093 1.23804 5.861646449121094 1.23804 5.861646449121094 1.192428 C 5.861646449121094 1.148445 5.824179449121093 1.148445 5.824179449121093 1.148445 Z M 6.561712698925781 1.148445 L 6.561712698925781 0.8014680000000001 L 7.102540698925781 0.8014680000000001 C 7.102540698925781 0.8014680000000001 7.140007698925781 0.7982100000000001 7.140007698925781 0.7558560000000001 C 7.140007698925781 0.7151310000000001 7.102540698925781 0.711873 7.102540698925781 0.711873 L 6.561712698925781 0.711873 L 6.561712698925781 0.10751400000000011 L 7.198651698925781 0.10751400000000011 C 7.198651698925781 0.10751400000000011 7.2361186989257815 0.10262700000000002 7.2361186989257815 0.06027300000000002 C 7.2361186989257815 0.01954800000000012 7.198651698925781 0.016289999999999916 7.198651698925781 0.016289999999999916 L 6.498181698925781 0.016289999999999916 C 6.478633698925782 0.016289999999999916 6.465601698925781 0.02932200000000007 6.465601698925781 0.04886999999999997 L 6.465601698925781 1.20546 C 6.465601698925781 1.225008 6.478633698925782 1.23804 6.498181698925781 1.23804 L 7.245892698925781 1.23804 C 7.245892698925781 1.23804 7.283359698925781 1.234782 7.283359698925781 1.194057 C 7.283359698925781 1.151703 7.245892698925781 1.148445 7.245892698925781 1.148445 Z M 8.299509218261719 1.2005730000000001 C 8.299509218261719 1.2005730000000001 8.299509218261719 1.23804 8.34837921826172 1.23804 C 8.397249218261718 1.23804 8.397249218261718 1.2005730000000001 8.397249218261718 1.2005730000000001 L 8.397249218261718 0.747711 L 8.848482218261719 0.07819200000000004 C 8.848482218261719 0.07819200000000004 8.854998218261718 0.0651600000000001 8.854998218261718 0.05864399999999992 C 8.854998218261718 0.03095099999999995 8.84033721826172 0.016289999999999916 8.814273218261718 0.016289999999999916 C 8.791467218261719 0.016289999999999916 8.786580218261719 0.022806000000000104 8.78006421826172 0.03258000000000005 L 8.34837921826172 0.664632 L 7.928097218261719 0.03258000000000005 C 7.928097218261719 0.03258000000000005 7.921581218261719 0.016289999999999916 7.8938882182617185 0.016289999999999916 C 7.8629372182617185 0.016289999999999916 7.846647218261719 0.03258000000000005 7.846647218261719 0.061902000000000124 C 7.846647218261719 0.06841800000000009 7.853163218261718 0.08145000000000002 7.853163218261718 0.08145000000000002 L 8.299509218261719 0.747711 Z M 10.312161626074218 0.956223 C 10.312161626074218 0.881289 10.346370626074219 0.8682570000000001 10.346370626074219 0.84708 C 10.346370626074219 0.83079 10.333338626074218 0.821016 10.308903626074217 0.821016 C 10.269807626074218 0.821016 10.222566626074219 0.860112 10.222566626074219 0.956223 C 10.222566626074219 1.161477 10.401756626074217 1.25433 10.655880626074218 1.25433 C 10.923036626074218 1.25433 11.113629626074218 1.1126070000000001 11.113629626074218 0.894321 C 11.113629626074218 0.663003 10.896972626074218 0.6076170000000001 10.694976626074219 0.5457150000000001 C 10.465287626074218 0.475668 10.357773626074218 0.43820100000000006 10.357773626074218 0.28670400000000007 C 10.357773626074218 0.15475499999999998 10.483206626074217 0.08959500000000009 10.677057626074218 0.08959500000000009 C 10.852989626074217 0.08959500000000009 10.942584626074218 0.16127099999999994 10.942584626074218 0.24435000000000007 C 10.942584626074218 0.29159100000000004 10.910004626074217 0.31113900000000005 10.910004626074217 0.33720300000000003 C 10.910004626074217 0.35838000000000003 10.926294626074219 0.366525 10.944213626074218 0.366525 C 10.986567626074217 0.366525 11.030550626074218 0.319284 11.030550626074218 0.24272099999999996 C 11.030550626074218 0.11565899999999996 10.911633626074218 0 10.677057626074218 0 C 10.411530626074217 0 10.268178626074217 0.1286910000000001 10.268178626074217 0.30788100000000007 C 10.268178626074217 0.532683 10.466916626074218 0.573408 10.660767626074218 0.636939 C 10.844844626074218 0.697212 11.022405626074217 0.734679 11.022405626074217 0.908982 C 11.022405626074217 1.063737 10.866021626074218 1.164735 10.652622626074217 1.164735 C 10.445739626074218 1.164735 10.312161626074218 1.0914300000000001 10.312161626074218 0.956223 Z M 12.698304122460938 0.30951000000000006 C 12.698304122460938 0.37141199999999996 12.682014122460938 0.37629900000000005 12.682014122460938 0.39421800000000007 C 12.682014122460938 0.41539500000000007 12.698304122460938 0.428427 12.722739122460938 0.428427 C 12.760206122460938 0.428427 12.794415122460938 0.369783 12.794415122460938 0.296478 C 12.794415122460938 0.1254329999999999 12.628257122460937 0 12.392052122460937 0 C 12.085800122460938 0 11.782806122460938 0.193851 11.782806122460938 0.6532290000000001 C 11.782806122460938 1.0490760000000001 12.059736122460937 1.25433 12.393681122460936 1.25433 C 12.587532122460937 1.25433 12.737400122460937 1.161477 12.813963122460937 1.073511 C 12.823737122460937 1.062108 12.843285122460937 1.036044 12.843285122460937 1.014867 C 12.843285122460937 0.9953190000000001 12.828624122460937 0.9774 12.804189122460937 0.9774 C 12.786270122460937 0.9774 12.781383122460937 0.982287 12.769980122460938 0.99369 C 12.706449122460938 1.065366 12.574500122460938 1.164735 12.400197122460938 1.164735 C 12.116751122460938 1.164735 11.880546122460938 1.005093 11.880546122460938 0.6532290000000001 C 11.880546122460938 0.23294700000000002 12.133041122460938 0.08959500000000009 12.392052122460937 0.08959500000000009 C 12.566355122460937 0.08959500000000009 12.703191122460938 0.172674 12.698304122460938 0.30951000000000006 Z M 14.40999289423828 0.793323 L 14.40999289423828 1.2005730000000001 C 14.40999289423828 1.2005730000000001 14.40999289423828 1.23804 14.458862894238282 1.23804 C 14.50773289423828 1.23804 14.50773289423828 1.2005730000000001 14.50773289423828 1.2005730000000001 L 14.50773289423828 0.053757000000000055 C 14.50773289423828 0.053757000000000055 14.50773289423828 0.016289999999999916 14.458862894238282 0.016289999999999916 C 14.40999289423828 0.016289999999999916 14.40999289423828 0.053757000000000055 14.40999289423828 0.053757000000000055 L 14.40999289423828 0.703728 L 13.611782894238281 0.703728 L 13.611782894238281 0.053757000000000055 C 13.611782894238281 0.053757000000000055 13.611782894238281 0.016289999999999916 13.56291289423828 0.016289999999999916 C 13.514042894238282 0.016289999999999916 13.514042894238282 0.053757000000000055 13.514042894238282 0.053757000000000055 L 13.514042894238282 1.2005730000000001 C 13.514042894238282 1.2005730000000001 13.514042894238282 1.23804 13.56291289423828 1.23804 C 13.611782894238281 1.23804 13.611782894238281 1.2005730000000001 13.611782894238281 1.2005730000000001 L 13.611782894238281 0.793323 Z M 16.0451791171875 0.09936900000000004 C 16.0240021171875 0.09936900000000004 16.007712117187502 0.11240099999999997 16.002825117187502 0.12380400000000003 L 15.620010117187501 1.0914300000000001 L 15.2274211171875 0.063531 C 15.214389117187501 0.027692999999999968 15.1964701171875 0.016289999999999916 15.1720351171875 0.016289999999999916 C 15.137826117187501 0.016289999999999916 15.126423117187501 0.043983000000000105 15.126423117187501 0.05864399999999992 C 15.126423117187501 0.0651600000000001 15.1280521171875 0.07656299999999994 15.1313101171875 0.0830789999999999 L 15.5711401171875 1.229895 C 15.579285117187501 1.252701 15.5955751171875 1.25433 15.6134941171875 1.25433 C 15.6314131171875 1.25433 15.6493321171875 1.252701 15.655848117187501 1.234782 L 16.0451791171875 0.24760800000000005 L 16.4361391171875 1.234782 C 16.4426551171875 1.252701 16.4573161171875 1.25433 16.475235117187502 1.25433 C 16.4931541171875 1.25433 16.504557117187503 1.252701 16.5127021171875 1.229895 L 16.9509031171875 0.08796599999999999 C 16.9509031171875 0.08796599999999999 16.9590481171875 0.07167600000000007 16.9590481171875 0.055385999999999935 C 16.9590481171875 0.034208999999999934 16.9460161171875 0.016289999999999916 16.9199521171875 0.016289999999999916 C 16.8890011171875 0.016289999999999916 16.8743401171875 0.035838000000000036 16.8661951171875 0.05701500000000004 L 16.4736061171875 1.080027 L 16.0973071171875 0.12380400000000003 C 16.0907911171875 0.10914299999999999 16.069614117187502 0.09936900000000004 16.0451791171875 0.09936900000000004 Z M 17.672199659472657 1.148445 L 17.672199659472657 0.8014680000000001 L 18.213027659472655 0.8014680000000001 C 18.213027659472655 0.8014680000000001 18.250494659472658 0.7982100000000001 18.250494659472658 0.7558560000000001 C 18.250494659472658 0.7151310000000001 18.213027659472655 0.711873 18.213027659472655 0.711873 L 17.672199659472657 0.711873 L 17.672199659472657 0.10751400000000011 L 18.309138659472655 0.10751400000000011 C 18.309138659472655 0.10751400000000011 18.346605659472655 0.10262700000000002 18.346605659472655 0.06027300000000002 C 18.346605659472655 0.01954800000000012 18.309138659472655 0.016289999999999916 18.309138659472655 0.016289999999999916 L 17.608668659472656 0.016289999999999916 C 17.589120659472655 0.016289999999999916 17.576088659472656 0.02932200000000007 17.576088659472656 0.04886999999999997 L 17.576088659472656 1.20546 C 17.576088659472656 1.225008 17.589120659472655 1.23804 17.608668659472656 1.23804 L 18.356379659472655 1.23804 C 18.356379659472655 1.23804 18.393846659472658 1.234782 18.393846659472658 1.194057 C 18.393846659472658 1.151703 18.356379659472655 1.148445 18.356379659472655 1.148445 Z M 19.12817917880859 0.053757000000000055 C 19.12817917880859 0.053757000000000055 19.12817917880859 0.016289999999999916 19.079309178808593 0.016289999999999916 C 19.030439178808592 0.016289999999999916 19.030439178808592 0.053757000000000055 19.030439178808592 0.053757000000000055 L 19.030439178808592 1.2005730000000001 C 19.030439178808592 1.2005730000000001 19.030439178808592 1.23804 19.079309178808593 1.23804 C 19.12817917880859 1.23804 19.12817917880859 1.2005730000000001 19.12817917880859 1.2005730000000001 Z M 19.927608860742183 0.053757000000000055 C 19.927608860742183 0.053757000000000055 19.927608860742183 0.016289999999999916 19.878738860742185 0.016289999999999916 C 19.829868860742184 0.016289999999999916 19.829868860742184 0.053757000000000055 19.829868860742184 0.053757000000000055 L 19.829868860742184 1.2005730000000001 C 19.829868860742184 1.2005730000000001 19.829868860742184 1.23804 19.878738860742185 1.23804 C 19.927608860742183 1.23804 19.927608860742183 1.2005730000000001 19.927608860742183 1.2005730000000001 L 19.927608860742183 0.741195 L 20.030235860742184 0.640197 C 20.225715860742184 0.734679 20.483097860742184 1.23804 20.701383860742183 1.23804 C 20.760027860742184 1.23804 20.795865860742182 1.210347 20.795865860742182 1.1761380000000001 C 20.795865860742182 1.15659 20.782833860742183 1.145187 20.766543860742186 1.145187 C 20.760027860742184 1.145187 20.748624860742183 1.150074 20.714415860742186 1.150074 C 20.554773860742184 1.150074 20.312052860742185 0.711873 20.093766860742186 0.575037 L 20.575950860742186 0.09936900000000004 C 20.575950860742186 0.09936900000000004 20.597127860742184 0.07819200000000004 20.597127860742184 0.055385999999999935 C 20.597127860742184 0.03258000000000005 20.584095860742185 0.016289999999999916 20.551515860742185 0.016289999999999916 C 20.528709860742183 0.016289999999999916 20.517306860742185 0.03258000000000005 20.517306860742185 0.03258000000000005 L 19.927608860742183 0.6287940000000001 Z M 22.27949622333984 0.793323 L 22.27949622333984 1.2005730000000001 C 22.27949622333984 1.2005730000000001 22.27949622333984 1.23804 22.32836622333984 1.23804 C 22.377236223339843 1.23804 22.377236223339843 1.2005730000000001 22.377236223339843 1.2005730000000001 L 22.377236223339843 0.053757000000000055 C 22.377236223339843 0.053757000000000055 22.377236223339843 0.016289999999999916 22.32836622333984 0.016289999999999916 C 22.27949622333984 0.016289999999999916 22.27949622333984 0.053757000000000055 22.27949622333984 0.053757000000000055 L 22.27949622333984 0.703728 L 21.48128622333984 0.703728 L 21.48128622333984 0.053757000000000055 C 21.48128622333984 0.053757000000000055 21.48128622333984 0.016289999999999916 21.432416223339843 0.016289999999999916 C 21.38354622333984 0.016289999999999916 21.38354622333984 0.053757000000000055 21.38354622333984 0.053757000000000055 L 21.38354622333984 1.2005730000000001 C 21.38354622333984 1.2005730000000001 21.38354622333984 1.23804 21.432416223339843 1.23804 C 21.48128622333984 1.23804 21.48128622333984 1.2005730000000001 21.48128622333984 1.2005730000000001 L 21.48128622333984 0.793323 Z M 23.96029444628906 0.964368 L 24.069437446289058 1.207089 C 24.07595344628906 1.2217500000000001 24.09224344628906 1.23804 24.126452446289058 1.23804 C 24.16880644628906 1.23804 24.16880644628906 1.216863 24.16880644628906 1.207089 C 24.16880644628906 1.1973150000000001 24.163919446289057 1.184283 24.163919446289057 1.184283 L 23.64263944628906 0.05049900000000007 C 23.63286544628906 0.027692999999999968 23.61657544628906 0.006515999999999966 23.58073744628906 0.006515999999999966 C 23.54164144628906 0.006515999999999966 23.53186744628906 0.022806000000000104 23.51720644628906 0.053757000000000055 L 22.99755544628906 1.184283 C 22.99755544628906 1.184283 22.99266844628906 1.194057 22.99266844628906 1.2005730000000001 C 22.99266844628906 1.220121 23.005700446289058 1.23804 23.03502244628906 1.23804 C 23.07574744628906 1.23804 23.08389244628906 1.223379 23.09203744628906 1.207089 L 23.201180446289058 0.964368 Z M 23.58073744628906 0.12380400000000003 L 23.91956944628906 0.874773 L 23.24190544628906 0.874773 Z M 25.60359544365234 1.1403 C 25.50096844365234 1.1403 25.41463144365234 0.91224 25.25336044365234 0.791694 C 25.445582443652338 0.731421 25.59219244365234 0.599472 25.59219244365234 0.39747600000000005 C 25.59219244365234 0.10099799999999992 25.364132443652338 0.016289999999999916 25.01226844365234 0.016289999999999916 L 24.81678844365234 0.016289999999999916 C 24.79724044365234 0.016289999999999916 24.78420844365234 0.02932200000000007 24.78420844365234 0.04886999999999997 L 24.78420844365234 1.2005730000000001 C 24.78420844365234 1.2005730000000001 24.78420844365234 1.23804 24.83307844365234 1.23804 C 24.881948443652337 1.23804 24.881948443652337 1.2005730000000001 24.881948443652337 1.2005730000000001 L 24.881948443652337 0.105885 L 25.01226844365234 0.105885 C 25.30874644365234 0.105885 25.49445244365234 0.15638400000000008 25.49445244365234 0.39421800000000007 C 25.49445244365234 0.638568 25.22892544365234 0.746082 24.95525344365234 0.746082 C 24.93244744365234 0.746082 24.91941544365234 0.7525980000000001 24.91941544365234 0.790065 C 24.91941544365234 0.8161290000000001 24.93244744365234 0.832419 24.97643044365234 0.832419 C 25.030187443652338 0.832419 25.08394444365234 0.829161 25.13607244365234 0.8193870000000001 C 25.32014944365234 0.923643 25.41788944365234 1.23804 25.56612844365234 1.23804 C 25.62965944365234 1.23804 25.68504544365234 1.210347 25.68504544365234 1.166364 C 25.68504544365234 1.151703 25.67690044365234 1.135413 25.66386844365234 1.135413 C 25.650836443652338 1.135413 25.64757844365234 1.1403 25.60359544365234 1.1403 Z M 26.74030050791015 1.23804 C 27.19804950791015 1.23804 27.35117550791015 0.9545939999999999 27.35117550791015 0.614133 C 27.35117550791015 0.172674 27.07587450791015 0.016289999999999916 26.696317507910152 0.016289999999999916 L 26.32164750791015 0.016289999999999916 C 26.30209950791015 0.016289999999999916 26.28906750791015 0.02932200000000007 26.28906750791015 0.04886999999999997 L 26.28906750791015 1.20546 C 26.28906750791015 1.225008 26.30209950791015 1.23804 26.32164750791015 1.23804 Z M 26.38680750791015 1.148445 L 26.38680750791015 0.105885 L 26.696317507910152 0.105885 C 27.02374650791015 0.105885 27.25506450791015 0.22968900000000003 27.25506450791015 0.614133 C 27.25506450791015 0.91224 27.12637350791015 1.148445 26.74030050791015 1.148445 Z" fill="#193b29" fill-rule="nonzero"></path></g><g><path d=" M 7.724919733926157 2.1003325442307688 C 7.709162233926157 2.1003325442307688 7.697041080080003 2.110029467307692 7.693404733926156 2.118514275 L 7.408557618541542 2.8385108134615384 L 7.116437810849233 2.0736660057692307 C 7.10674088777231 2.046999467307692 7.093407618541542 2.0385146596153843 7.07522588777231 2.0385146596153843 C 7.049771464695388 2.0385146596153843 7.04128665700308 2.0591206211538458 7.04128665700308 2.0700296596153844 C 7.04128665700308 2.074878121153846 7.042498772387695 2.0833629288461535 7.044923003156926 2.088211390384615 L 7.372194157003079 2.941540621153846 C 7.378254733926156 2.9585102365384617 7.3903758877723105 2.9597223519230766 7.40370915700308 2.9597223519230766 C 7.417042426233849 2.9597223519230766 7.430375695464618 2.9585102365384617 7.43522415700308 2.945176967307692 L 7.724919733926157 2.210635044230769 L 8.015827426233848 2.945176967307692 C 8.02067588777231 2.9585102365384617 8.03158492623385 2.9597223519230766 8.044918195464618 2.9597223519230766 C 8.058251464695388 2.9597223519230766 8.066736272387695 2.9585102365384617 8.072796849310771 2.941540621153846 L 8.39885588777231 2.0918477365384613 C 8.39885588777231 2.0918477365384613 8.404916464695388 2.0797265826923077 8.404916464695388 2.0676054288461536 C 8.404916464695388 2.0518479288461537 8.395219541618465 2.0385146596153843 8.375825695464618 2.0385146596153843 C 8.352795503156926 2.0385146596153843 8.341886464695387 2.053060044230769 8.33582588777231 2.068817544230769 L 8.043706080080003 2.8300260057692306 L 7.763707426233849 2.118514275 C 7.758858964695388 2.107605236538461 7.743101464695387 2.1003325442307688 7.724919733926157 2.1003325442307688 Z M 8.74538132878418 2.884571198076923 L 8.74538132878418 2.6748752365384614 L 9.083561521091871 2.6748752365384614 C 9.083561521091871 2.6748752365384614 9.104167482630334 2.6700267749999997 9.104167482630334 2.643360236538461 C 9.104167482630334 2.616693698076923 9.083561521091871 2.610633121153846 9.083561521091871 2.610633121153846 L 8.74538132878418 2.610633121153846 L 8.74538132878418 2.2385136980769227 L 9.146591521091873 2.2385136980769227 C 9.146591521091873 2.2385136980769227 9.167197482630334 2.232453121153846 9.167197482630334 2.2057865826923075 C 9.167197482630334 2.1803321596153844 9.146591521091873 2.1754836980769228 9.146591521091873 2.1754836980769228 L 8.696896713399564 2.1754836980769228 C 8.68477555955341 2.1754836980769228 8.676290751861103 2.182756390384615 8.676290751861103 2.1960896596153843 L 8.676290751861103 2.9269952365384615 C 8.676290751861103 2.939116390384615 8.68477555955341 2.947601198076923 8.696896713399564 2.947601198076923 L 9.17568229032264 2.947601198076923 C 9.17568229032264 2.947601198076923 9.196288251861102 2.9427527365384614 9.196288251861102 2.916086198076923 C 9.196288251861102 2.890631775 9.17568229032264 2.884571198076923 9.17568229032264 2.884571198076923 Z M 10.00582342234638 2.371846390384615 C 10.00582342234638 2.2239683134615382 9.89794515311561 2.1754836980769228 9.717339960807918 2.1754836980769228 L 9.49067438388484 2.1754836980769228 C 9.478553230038687 2.1754836980769228 9.47006842234638 2.182756390384615 9.47006842234638 2.1960896596153843 L 9.47006842234638 2.9269952365384615 C 9.47006842234638 2.939116390384615 9.478553230038687 2.947601198076923 9.49067438388484 2.947601198076923 L 9.799763806961764 2.947601198076923 C 9.968247845423303 2.947601198076923 10.05552015311561 2.850631967307692 10.05552015311561 2.7197235057692306 C 10.05552015311561 2.6227542749999997 9.980368999269457 2.5512394673076924 9.89794515311561 2.541542544230769 C 9.968247845423303 2.5124517749999997 10.00582342234638 2.4639671596153843 10.00582342234638 2.371846390384615 Z M 9.539158999269457 2.2373015826923073 L 9.717339960807918 2.2373015826923073 C 9.861581691577149 2.2373015826923073 9.93188438388484 2.2627560057692304 9.93188438388484 2.369422159615384 C 9.93188438388484 2.459118698076923 9.89794515311561 2.530633505769231 9.774309383884841 2.530633505769231 L 9.539158999269457 2.530633505769231 Z M 9.982793230038688 2.7245719673076922 C 9.982793230038688 2.8227533134615386 9.93188438388484 2.8857833134615385 9.782794191577148 2.8857833134615385 L 9.539158999269457 2.8857833134615385 L 9.539158999269457 2.591239275 L 9.80340015311561 2.591239275 C 9.923399576192534 2.591239275 9.982793230038688 2.638511775 9.982793230038688 2.7245719673076922 Z M 11.120671518913387 2.947601198076923 C 11.46127594199031 2.947601198076923 11.575214788144157 2.736693121153846 11.575214788144157 2.483361005769231 C 11.575214788144157 2.1548777365384613 11.370367288144157 2.0385146596153843 11.087944403528772 2.0385146596153843 L 10.809157865067233 2.0385146596153843 C 10.79461248045185 2.0385146596153843 10.784915557374926 2.0482115826923075 10.784915557374926 2.062756967307692 L 10.784915557374926 2.9233588903846153 C 10.784915557374926 2.9379042749999997 10.79461248045185 2.947601198076923 10.809157865067233 2.947601198076923 Z M 10.85764248045185 2.880934851923077 L 10.85764248045185 2.1051810057692304 L 11.087944403528772 2.1051810057692304 C 11.331579595836464 2.1051810057692304 11.503699980451849 2.1973017749999997 11.503699980451849 2.483361005769231 C 11.503699980451849 2.705178121153846 11.407942865067234 2.880934851923077 11.120671518913387 2.880934851923077 Z M 11.954449588944188 2.884571198076923 L 11.954449588944188 2.6748752365384614 L 12.292629781251879 2.6748752365384614 C 12.292629781251879 2.6748752365384614 12.313235742790342 2.6700267749999997 12.313235742790342 2.643360236538461 C 12.313235742790342 2.616693698076923 12.292629781251879 2.610633121153846 12.292629781251879 2.610633121153846 L 11.954449588944188 2.610633121153846 L 11.954449588944188 2.2385136980769227 L 12.35565978125188 2.2385136980769227 C 12.35565978125188 2.2385136980769227 12.376265742790341 2.232453121153846 12.376265742790341 2.2057865826923075 C 12.376265742790341 2.1803321596153844 12.35565978125188 2.1754836980769228 12.35565978125188 2.1754836980769228 L 11.905964973559572 2.1754836980769228 C 11.893843819713418 2.1754836980769228 11.88535901202111 2.182756390384615 11.88535901202111 2.1960896596153843 L 11.88535901202111 2.9269952365384615 C 11.88535901202111 2.939116390384615 11.893843819713418 2.947601198076923 11.905964973559572 2.947601198076923 L 12.384750550482648 2.947601198076923 C 12.384750550482648 2.947601198076923 12.405356512021111 2.9427527365384614 12.405356512021111 2.916086198076923 C 12.405356512021111 2.890631775 12.384750550482648 2.884571198076923 12.384750550482648 2.884571198076923 Z M 12.648833797891003 2.1754836980769228 C 12.62580360558331 2.1754836980769228 12.617318797891002 2.187604851923077 12.617318797891002 2.1973017749999997 C 12.617318797891002 2.2094229288461538 12.620955144044848 2.2142713903846154 12.620955144044848 2.2142713903846154 L 12.965195913275618 2.947601198076923 C 12.968832259429464 2.9548738903846155 12.974892836352542 2.9585102365384617 12.98822610558331 2.9585102365384617 C 13.001559374814079 2.9585102365384617 13.008832067121771 2.9548738903846155 13.012468413275618 2.947601198076923 L 13.356709182506387 2.2142713903846154 C 13.356709182506387 2.2142713903846154 13.360345528660233 2.2082108134615384 13.360345528660233 2.198513890384615 C 13.360345528660233 2.185180621153846 13.349436490198695 2.1754836980769228 13.330042644044848 2.1754836980769228 C 13.313073028660233 2.1754836980769228 13.30337610558331 2.1839685057692306 13.298527644044848 2.194877544230769 L 12.990650336352541 2.853056198076923 L 12.682773028660232 2.198513890384615 C 12.676712451737156 2.185180621153846 12.670651874814078 2.1754836980769228 12.648833797891003 2.1754836980769228 Z M 13.689894252048905 2.884571198076923 L 13.689894252048905 2.6748752365384614 L 14.028074444356596 2.6748752365384614 C 14.028074444356596 2.6748752365384614 14.048680405895059 2.6700267749999997 14.048680405895059 2.643360236538461 C 14.048680405895059 2.616693698076923 14.028074444356596 2.610633121153846 14.028074444356596 2.610633121153846 L 13.689894252048905 2.610633121153846 L 13.689894252048905 2.2385136980769227 L 14.091104444356597 2.2385136980769227 C 14.091104444356597 2.2385136980769227 14.111710405895058 2.232453121153846 14.111710405895058 2.2057865826923075 C 14.111710405895058 2.1803321596153844 14.091104444356597 2.1754836980769228 14.091104444356597 2.1754836980769228 L 13.641409636664289 2.1754836980769228 C 13.629288482818135 2.1754836980769228 13.620803675125828 2.182756390384615 13.620803675125828 2.1960896596153843 L 13.620803675125828 2.9269952365384615 C 13.620803675125828 2.939116390384615 13.629288482818135 2.947601198076923 13.641409636664289 2.947601198076923 L 14.120195213587365 2.947601198076923 C 14.120195213587365 2.947601198076923 14.140801175125826 2.9427527365384614 14.140801175125826 2.916086198076923 C 14.140801175125826 2.890631775 14.120195213587365 2.884571198076923 14.120195213587365 2.884571198076923 Z M 14.483671922534182 2.884571198076923 L 14.483671922534182 2.194877544230769 C 14.483671922534182 2.182756390384615 14.47639923022649 2.1754836980769228 14.448520576380334 2.1754836980769228 C 14.423066153303411 2.1754836980769228 14.414581345611104 2.1839685057692306 14.414581345611104 2.194877544230769 L 14.414581345611104 2.9269952365384615 C 14.414581345611104 2.939116390384615 14.423066153303411 2.947601198076923 14.435187307149565 2.947601198076923 L 14.913972884072642 2.947601198076923 C 14.913972884072642 2.947601198076923 14.934578845611103 2.9427527365384614 14.934578845611103 2.916086198076923 C 14.934578845611103 2.890631775 14.913972884072642 2.884571198076923 14.913972884072642 2.884571198076923 Z M 15.513752907697944 2.8954802365384613 C 15.34405675385179 2.8954802365384613 15.198602907697943 2.764571775 15.198602907697943 2.563360621153846 C 15.198602907697943 2.358513121153846 15.342844638467174 2.2251804288461536 15.513752907697944 2.2251804288461536 C 15.684661176928712 2.2251804288461536 15.828902907697943 2.358513121153846 15.828902907697943 2.563360621153846 C 15.828902907697943 2.764571775 15.682236946159481 2.8954802365384613 15.513752907697944 2.8954802365384613 Z M 15.513752907697944 2.9585102365384617 C 15.722236753851789 2.9585102365384617 15.896781369236404 2.798511005769231 15.896781369236404 2.563360621153846 C 15.896781369236404 2.3257860057692303 15.712539830774867 2.1621504288461537 15.513752907697944 2.1621504288461537 C 15.31496598462102 2.1621504288461537 15.129512330774865 2.3257860057692303 15.129512330774865 2.563360621153846 C 15.129512330774865 2.798511005769231 15.304056946159482 2.9585102365384617 15.513752907697944 2.9585102365384617 Z M 16.26994198048941 2.2385136980769227 L 16.362062749720177 2.2385136980769227 C 16.546304288181716 2.2385136980769227 16.673576403566333 2.2785135057692307 16.673576403566333 2.4239673519230767 C 16.673576403566333 2.5997240826923074 16.50872871125864 2.660329851923077 16.34872948048941 2.660329851923077 C 16.32206294202787 2.660329851923077 16.31479024972018 2.6724510057692306 16.31479024972018 2.6918448519230767 C 16.31479024972018 2.707602351923077 16.32206294202787 2.7221477365384614 16.349941595874025 2.7221477365384614 C 16.54751640356633 2.7221477365384614 16.74266698048941 2.6288148519230767 16.74266698048941 2.4263915826923075 C 16.74266698048941 2.2385136980769227 16.587516211258638 2.1754836980769228 16.362062749720177 2.1754836980769228 L 16.221457365104794 2.1754836980769228 C 16.20933621125864 2.1754836980769228 16.200851403566332 2.182756390384615 16.200851403566332 2.1960896596153843 L 16.200851403566332 2.928207351923077 C 16.200851403566332 2.9379042749999997 16.20933621125864 2.9488133134615384 16.234790634335564 2.9488133134615384 C 16.262669288181716 2.9488133134615384 16.26994198048941 2.9379042749999997 16.26994198048941 2.928207351923077 Z M 17.445554344578202 2.9354800442307694 C 17.460099729193587 2.9354800442307694 17.466160306116663 2.925783121153846 17.471008767655125 2.9185104288461536 L 17.81282530611666 2.333058698076923 L 17.81282530611666 2.9269952365384615 C 17.81282530611666 2.941540621153846 17.820097998424355 2.947601198076923 17.847976652270507 2.947601198076923 C 17.87343107534743 2.947601198076923 17.88191588303974 2.9403285057692305 17.88191588303974 2.9269952365384615 L 17.88191588303974 2.1936654288461535 C 17.88191588303974 2.181544275 17.868582613808968 2.1754836980769228 17.854037229193587 2.1754836980769228 C 17.84191607534743 2.1754836980769228 17.82979492150128 2.1803321596153844 17.8237343445782 2.1900290826923072 L 17.450402806116664 2.839722928846154 L 17.095252998424353 2.1912411980769226 C 17.089192421501277 2.1803321596153844 17.077071267655125 2.1754836980769228 17.058889536885893 2.1754836980769228 C 17.043132036885893 2.1754836980769228 17.02858665227051 2.182756390384615 17.02858665227051 2.1960896596153843 L 17.02858665227051 2.9269952365384615 C 17.02858665227051 2.939116390384615 17.03343511380897 2.947601198076923 17.060101652270507 2.947601198076923 C 17.086768190732048 2.947601198076923 17.09161665227051 2.939116390384615 17.09161665227051 2.9269952365384615 L 17.09161665227051 2.324573890384615 L 17.41888780611666 2.9185104288461536 C 17.423736267655123 2.9269952365384615 17.431008959962817 2.9354800442307694 17.445554344578202 2.9354800442307694 Z M 18.273274205098783 2.884571198076923 L 18.273274205098783 2.6748752365384614 L 18.611454397406476 2.6748752365384614 C 18.611454397406476 2.6748752365384614 18.632060358944937 2.6700267749999997 18.632060358944937 2.643360236538461 C 18.632060358944937 2.616693698076923 18.611454397406476 2.610633121153846 18.611454397406476 2.610633121153846 L 18.273274205098783 2.610633121153846 L 18.273274205098783 2.2385136980769227 L 18.674484397406474 2.2385136980769227 C 18.674484397406474 2.2385136980769227 18.695090358944935 2.232453121153846 18.695090358944935 2.2057865826923075 C 18.695090358944935 2.1803321596153844 18.674484397406474 2.1754836980769228 18.674484397406474 2.1754836980769228 L 18.224789589714167 2.1754836980769228 C 18.212668435868014 2.1754836980769228 18.204183628175706 2.182756390384615 18.204183628175706 2.1960896596153843 L 18.204183628175706 2.9269952365384615 C 18.204183628175706 2.939116390384615 18.212668435868014 2.947601198076923 18.224789589714167 2.947601198076923 L 18.703575166637243 2.947601198076923 C 18.703575166637243 2.947601198076923 18.724181128175704 2.9427527365384614 18.724181128175704 2.916086198076923 C 18.724181128175704 2.890631775 18.703575166637243 2.884571198076923 18.703575166637243 2.884571198076923 Z M 19.031900529430214 2.1754836980769228 C 19.007658221737906 2.1754836980769228 18.997961298660982 2.1863927365384614 18.997961298660982 2.1960896596153843 L 18.997961298660982 2.9269952365384615 C 18.997961298660982 2.9379042749999997 19.005233990968673 2.947601198076923 19.028264183276367 2.947601198076923 C 19.05129437558406 2.947601198076923 19.05856706789175 2.9366921596153843 19.05856706789175 2.9269952365384615 L 19.05856706789175 2.2882104288461536 L 19.57856456789175 2.928207351923077 C 19.585837260199444 2.9379042749999997 19.593109952507135 2.947601198076923 19.611291683276367 2.947601198076923 C 19.627049183276366 2.947601198076923 19.63674610635329 2.941540621153846 19.63674610635329 2.9294194673076923 L 19.63674610635329 2.194877544230769 C 19.63674610635329 2.1863927365384614 19.62826129866098 2.1754836980769228 19.606443221737905 2.1754836980769228 C 19.58462514481483 2.1754836980769228 19.57614033712252 2.1863927365384614 19.57614033712252 2.194877544230769 L 19.57614033712252 2.8276017749999998 L 19.065839760199445 2.188816967307692 C 19.059779183276365 2.1803321596153844 19.0464459140456 2.1754836980769228 19.031900529430214 2.1754836980769228 Z M 20.442645522537937 2.2373015826923073 C 20.442645522537937 2.2373015826923073 20.463251484076398 2.232453121153846 20.463251484076398 2.2057865826923075 C 20.463251484076398 2.1803321596153844 20.442645522537937 2.1754836980769228 20.442645522537937 2.1754836980769228 L 19.906890522537935 2.1754836980769228 C 19.906890522537935 2.1754836980769228 19.886284560999474 2.1803321596153844 19.886284560999474 2.2057865826923075 C 19.886284560999474 2.232453121153846 19.906890522537935 2.2373015826923073 19.906890522537935 2.2373015826923073 L 20.140828791768705 2.2373015826923073 L 20.140828791768705 2.9269952365384615 C 20.140828791768705 2.9379042749999997 20.1481014840764 2.947601198076923 20.174768022537936 2.947601198076923 C 20.201434560999477 2.947601198076923 20.209919368691782 2.9379042749999997 20.209919368691782 2.9269952365384615 L 20.209919368691782 2.2373015826923073 Z" fill="#525252" fill-rule="nonzero"></path></g><g clip-path="url(&quot;#SvgjsClipPath1018&quot;)"><g clip-path="url(&quot;#SvgjsClipPath1008&quot;)"><path d=" M 15.959888274115022 -15.185391857249591 C 16.648401985381305 -16.391598612508815 17.930909530227055 -17.135912349973882 19.31978876783824 -17.135337574172958 C 20.345970607012596 -17.13533757417296 21.33012270968831 -16.72768842580668 22.055742846898987 -16.002068288596007 C 22.781362984109656 -15.276448151385331 23.18901213247593 -14.292296048709616 23.189012132475945 -13.266114209535255 C 23.18943901886137 -11.884184867938291 22.452653014617596 -10.606980609528538 21.256147365490442 -9.915530597596277 L 20.297284948450027 -11.450486871679274 L 19.934702965649628 -10.95203369618065 L 19.802713807028496 -10.770354501372738 L 17.71922611785316 -14.31076957968074 L 17.401287526939328 -14.85153692661967 L 17.027059441907653 -14.346872496597696 L 16.721931563448194 -13.937706104872188 Z" fill="#c8e5ce" transform="matrix(1,0,0,1,0,0)" fill-rule="evenodd"></path></g><g clip-path="url(&quot;#SvgjsClipPath1008&quot;)"><path d=" M 25.099361101812974 -5.5878390084547735 C 25.18360124128587 -5.5556181256149095 25.2732762284667 -5.527279276852136 25.36605684290921 -5.500881445127913 C 25.223571288464463 -5.6743569770327085 25.09958033988039 -5.862229935852641 24.99609899536231 -6.061447165860011 C 25.079545408147887 -6.028378047179411 25.164680595275897 -5.99974048803894 25.25114863422729 -5.975654212756277 C 25.030703470608678 -6.240308278048344 24.869242178241443 -6.548937568048675 24.777540476822047 -6.880944559534154 C 24.689267096032815 -6.547674240556756 24.527581569007005 -6.23836279755084 24.30432052282451 -5.975654212756277 C 24.392295470054435 -6.000148842438717 24.47886474070694 -6.02943724837804 24.56364039917427 -6.0633881828985565 C 24.45845353708051 -5.863586829494743 24.333054945742035 -5.6750986979082025 24.189412314142594 -5.500881445127909 C 24.282192928585097 -5.527279276852136 24.371867915765925 -5.5556181256149095 24.456496258646524 -5.5878390084547735 C 24.349333641840758 -5.365496334043511 24.220609618568282 -5.154206901904345 24.072174885014405 -4.957008470927306 C 24.188635907327168 -4.992723184436555 24.300826692155127 -5.031543525207477 24.406418019052033 -5.075410510278617 C 24.282622894251688 -4.845166836576237 24.135776365827155 -4.628083704653696 23.968136371748344 -4.427499022811949 C 24.09430247925382 -4.462437329505773 24.216198349274528 -4.500093060053565 24.331106557956453 -4.543960045124706 C 24.19436240897307 -4.294840432505817 24.033662900394127 -4.059641879901198 23.85128714602787 -3.841700080578745 C 24.147227787892305 -3.8575865172504553 24.43727256699473 -3.9307569047058433 24.705334642988127 -4.057152971857358 L 24.705334642988127 -3.691465361795281 L 24.850910920879087 -3.691465361795281 L 24.850910920879087 -4.055211954818811 C 25.116953742532864 -3.9233165186920758 25.408178215237214 -3.8499809014747104 25.704958417839343 -3.8401472669479073 C 25.52204344075473 -4.058021261604001 25.3608222889997 -4.293222119285327 25.22358619227991 -4.54240723149387 C 25.340047214592687 -4.500093060053565 25.460390270982543 -4.462437329505773 25.586556378488034 -4.425946209181106 C 25.418969186257904 -4.626958788152356 25.272371935366017 -4.844578309662667 25.14905113799975 -5.075410510278619 C 25.254642464896648 -5.031543525207477 25.366833249724614 -4.992723184436555 25.48329427203737 -4.957008470927308 C 25.334846122269887 -5.154122955841869 25.206243317463247 -5.365426856560582 25.099361101812974 -5.587839008454777 Z" fill="#c8e5ce" transform="matrix(1,0,0,1,0,0)" fill-rule="evenodd"></path></g><g clip-path="url(&quot;#SvgjsClipPath1008&quot;)"><path d=" M 25.922352326156492 -5.226033432469789 C 25.997663787252073 -5.197694583707017 26.07763368924018 -5.172073158798211 26.16032101508224 -5.148392750927949 C 26.0334080939666 -5.303313142785479 25.9229522972567 -5.471013404221365 25.830736321937117 -5.648786943465119 C 25.904961422323645 -5.618779158203562 25.980774676515715 -5.592860096941319 26.057835315447022 -5.5711462619232766 C 25.86139156562713 -5.806814952050365 25.71752603971079 -6.081707957872101 25.635858211267106 -6.37744473973531 C 25.55723309837819 -6.080516766283065 25.413037911231527 -5.804993855792144 25.213881107087175 -5.5711462619232766 C 25.292934960230113 -5.592576430953029 25.370701967780526 -5.618498766803166 25.446803151712707 -5.648786943465121 C 25.352740364318812 -5.4708458123079 25.24102279914122 -5.302814270736961 25.11333642449049 -5.147228140704822 C 25.196023750332557 -5.170908548575083 25.27560544891294 -5.19614177007618 25.35091691000852 -5.224868822246663 C 25.25553886237754 -5.026697231156497 25.140852186731124 -4.838413437124737 25.008521504409003 -4.662750287883721 C 25.109602244185012 -4.692947431138055 25.209106986304157 -4.728188693971919 25.30666172152968 -4.768341614780631 C 25.195414882252948 -4.563282239279495 25.063517929433175 -4.370119542102595 24.913023466112534 -4.191859554332456 C 25.02560245434821 -4.222915826949189 25.13429940850679 -4.25668952341989 25.236785108142023 -4.294345253967684 C 25.11509642171015 -4.07238262150131 24.972080131446056 -3.8627987488597455 24.809761359661913 -3.668561360740437 C 25.073573315503467 -3.6833187123966837 25.33199710450497 -3.7492431483664586 25.570640038771955 -3.8626630645950435 L 25.570640038771955 -3.5361839987115946 L 25.700688180354547 -3.5361839987115946 L 25.700688180354547 -3.8622748611873323 C 25.93748762290658 -3.7445221178549914 26.19685787501603 -3.679116857751845 26.461178656056887 -3.6705023777789823 C 26.298988728694546 -3.86483716640398 26.155981265334546 -4.074408103618829 26.03415490757675 -4.296286271006231 C 26.137028810619697 -4.257465930235309 26.245337561370576 -4.224856843987734 26.357916549606237 -4.193800571370996 C 26.208377846178607 -4.372525519108715 26.07751884431132 -4.566082372765285 25.96738392145076 -4.771447242042301 C 26.0613291461164 -4.732626901271383 26.16148562530538 -4.697688594577553 26.26513593516374 -4.6658559151454 C 26.13277961707945 -4.840887902445909 26.017965375345383 -5.028517518326154 25.922352326156492 -5.226033432469789 Z" fill="#c8e5ce" transform="matrix(1,0,0,1,0,0)" fill-rule="evenodd"></path></g><g clip-path="url(&quot;#SvgjsClipPath1008&quot;)"><path d=" M 24.15874424493356 -5.748943422654099 C 24.242984384406455 -5.717110743221943 24.332659371587283 -5.68838369105146 24.425439986029787 -5.661985859327233 C 24.28316210852556 -5.835532818073375 24.1593068568652 -6.023397296432156 24.055870341890618 -6.222551580059335 C 24.139128931042386 -6.189439871671773 24.224144256845406 -6.160928634359786 24.31053177734786 -6.1371468303633065 C 24.09009528217223 -6.401660330879448 23.928631750388895 -6.710161554311359 23.836923619942624 -7.042048973733477 C 23.748892839933553 -6.70880103462323 23.587177252609763 -6.399564747460184 23.363703665945096 -6.137146830363305 C 23.451833223429112 -6.161399187526456 23.538537891051014 -6.190559950179555 23.62341174570257 -6.22449259709788 C 23.517904439340022 -6.024791797007463 23.39238834643934 -5.836322554921342 23.248795457263178 -5.661985859327228 C 23.34157607170568 -5.68838369105146 23.431251058886502 -5.717110743221943 23.515491198359413 -5.748943422654095 C 23.408520158874943 -5.526579502281457 23.279922530653465 -5.315284107074273 23.131558028134997 -5.118112885126639 C 23.248019050447773 -5.153827598635877 23.360209835275718 -5.192647939406797 23.465801162172625 -5.234573907439392 C 23.34214431812258 -5.0042466125704355 23.195288582832937 -4.787149870144924 23.027519514868935 -4.586662419972713 C 23.15368562237441 -4.621600726666548 23.27558149239512 -4.659256457214342 23.390489701077044 -4.703123442285484 C 23.253745552093655 -4.45400382966659 23.09304604351471 -4.218805277061971 22.910670289148456 -4.0008634777395145 C 23.206669766583943 -4.016655907064857 23.496756719352533 -4.089968791491826 23.76471778610872 -4.216704572425842 L 23.76471778610872 -3.8506287589560557 L 23.91029406399968 -3.8506287589560557 L 23.91029406399968 -4.216704572425842 C 24.17637360874044 -4.084855791004783 24.46755967489552 -4.011397487952024 24.764341560959934 -4.001251681147229 C 24.581965806593672 -4.219193480469684 24.42126629801473 -4.454392033074303 24.284522149031353 -4.70351164569319 C 24.400983171344116 -4.661197474252887 24.521326227733972 -4.623541743705093 24.647492335239463 -4.587050623380428 C 24.479494729894995 -4.788089978334909 24.332384726867808 -5.005698320566971 24.208434281120333 -5.236514924477936 C 24.314025608017232 -5.192647939406797 24.4262163928452 -5.153827598635877 24.542677415157954 -5.11811288512663 C 24.394449442812302 -5.315376660376124 24.26586021622834 -5.52665825107273 24.15874424493356 -5.748943422654095 Z" fill="#c8e5ce" transform="matrix(1,0,0,1,0,0)" fill-rule="evenodd"></path></g><g clip-path="url(&quot;#SvgjsClipPath1008&quot;)"><path d=" M 2.3820858860776615 -5.5878390084547735 C 2.2978457466047635 -5.5556181256149095 2.208170759423937 -5.527279276852136 2.115390144981437 -5.500881445127913 C 2.2578756994261746 -5.6743569770327085 2.3818666480102455 -5.862229935852641 2.485347992528314 -6.061447165860011 C 2.4019015797427468 -6.028378047179411 2.3167663926147393 -5.9997404880389436 2.2302983536633656 -5.975654212756277 C 2.4507435172819583 -6.240308278048344 2.612204809649201 -6.548937568048675 2.7039065110686 -6.880944559534155 C 2.79217989185783 -6.547674240556756 2.9538654188836504 -6.23836279755084 3.17712646506612 -5.975654212756277 C 3.0891515178362106 -6.000148842438717 3.0025822471836974 -6.029437248378036 2.9178065887163753 -6.0633881828985565 C 3.022993450810137 -5.863586829494743 3.1483920421485974 -5.6750986979082025 3.2920346737480486 -5.500881445127909 C 3.1992540593055487 -5.527279276852136 3.1095790721247223 -5.5556181256149095 3.0253389326518243 -5.5878390084547735 C 3.1322211483020994 -5.365426856560582 3.2608239531087597 -5.154122955841869 3.409272102876232 -4.957008470927308 C 3.292811080563467 -4.992723184436555 3.180620295735508 -5.031543525207477 3.0750289688385997 -5.075410510278617 C 3.198685812888651 -4.845083215409662 3.3455415481782897 -4.627986472984155 3.513310616142303 -4.4274990228119435 C 3.3871445086368035 -4.462437329505773 3.265636842023824 -4.500093060053565 3.1503404299341917 -4.543960045124706 C 3.2870845789175607 -4.294840432505817 3.4477840874965056 -4.0596418799012 3.630159841862773 -3.8417000805787467 C 3.334219199998342 -3.8575865172504553 3.0441744208959047 -3.9307569047058397 2.7761123449025185 -4.057152971857358 L 2.7761123449025185 -3.691465361795281 L 2.630147863603845 -3.691465361795281 L 2.630147863603845 -4.055211954818811 C 2.364105041950055 -3.923316518692072 2.0728805692457195 -3.8499809014747104 1.7761003666435804 -3.8401472669479073 C 1.9584761210098374 -4.058089066270361 2.1191756295887823 -4.293287618874981 2.2559197785721614 -4.54240723149387 C 2.1394587562594065 -4.500093060053565 2.019115699869549 -4.462437329505773 1.8929495923640496 -4.425946209181106 C 2.061211890327282 -4.626870181361172 2.208461664519051 -4.84449286000325 2.332395849890886 -5.075410510278619 C 2.226804522993978 -5.031543525207477 2.1146137381660086 -4.992723184436555 1.9981527158532533 -4.957008470927308 C 2.146600865620726 -5.154122955841865 2.275203670427376 -5.365426856560578 2.3820858860776615 -5.587839008454772 Z" fill="#c8e5ce" transform="matrix(1,0,0,1,0,0)" fill-rule="evenodd"></path></g><g clip-path="url(&quot;#SvgjsClipPath1008&quot;)"><path d=" M 1.5590946617341315 -5.226033432469789 C 1.4837832006385394 -5.197694583707017 1.4038132986504477 -5.172073158798211 1.3211259728083866 -5.148392750927949 C 1.4480388939240156 -5.303313142785475 1.5584946906339243 -5.471013404221361 1.6507106659534987 -5.648786943465115 C 1.5764638900858743 -5.6188373409639105 1.500653830392154 -5.592919371837857 1.4236116724436212 -5.57114626192328 C 1.620055422263503 -5.806814952050365 1.7639209481798424 -6.081707957872101 1.8455887766235293 -6.37744473973531 C 1.9242138895124357 -6.080516766283065 2.0684090766591003 -5.804993855792144 2.2675658808034473 -5.5711462619232766 C 2.1885120276605083 -5.592576430953029 2.11074502011011 -5.618498766803166 2.0346438361779167 -5.648786943465121 C 2.1287066235718255 -5.4708458123079 2.2404241887494054 -5.302814270736961 2.3681105634001307 -5.14722814070482 C 2.2854232375580694 -5.170908548575083 2.2058415389776718 -5.19614177007618 2.1305300778820904 -5.224868822246663 C 2.225908125513075 -5.026697231156497 2.3405948011595017 -4.838413437124737 2.4729254834816206 -4.662750287883721 C 2.3718447437055943 -4.692947431138055 2.2723400015864477 -4.7281886939719175 2.1747852663609373 -4.768341614780631 C 2.2851055534730147 -4.562997553395357 2.416090870703319 -4.369446260407573 2.5657060979241204 -4.190694944109328 C 2.453127109688447 -4.2217512167260605 2.3444301555298757 -4.255524913196762 2.241944455894641 -4.293180643744556 C 2.3636331423265338 -4.071218011278184 2.506649432590628 -3.8616341386366173 2.6689682043747736 -3.667396750517309 C 2.405156248533211 -3.682154102173559 2.146732459531707 -3.7480785381433304 1.9080895252647228 -3.8614984543719135 L 1.9080895252647228 -3.5350193884884664 L 1.7780413836821314 -3.5350193884884664 L 1.7780413836821314 -3.861110250964204 C 1.541225025824907 -3.7434032508537953 1.2818648908917742 -3.678000541993679 1.0175509079797846 -3.669337767555854 C 1.17986967976393 -3.8635751556751607 1.3228859700280242 -4.073159028316727 1.4445746564599171 -4.295121660783101 C 1.3417007534169785 -4.256301320012181 1.2333920026661112 -4.2236922337646075 1.1208130144304378 -4.19263596114787 C 1.2703517178580697 -4.371360908885588 1.4012107197253432 -4.564917762542159 1.5113456425858969 -4.770282631819173 C 1.4174004179202742 -4.731462291048254 1.3172439387312949 -4.696523984354425 1.2135936288729376 -4.664691304922272 C 1.3469576941539794 -4.839976230884215 1.4626862535175733 -5.028002631827771 1.5590946617341315 -5.226033432469789 Z" fill="#c8e5ce" transform="matrix(1,0,0,1,0,0)" fill-rule="evenodd"></path></g><g clip-path="url(&quot;#SvgjsClipPath1008&quot;)"><path d=" M 3.3227027429570692 -5.748943422654099 C 3.2384626034841713 -5.717110743221943 3.148787616303345 -5.68838369105146 3.0560070018608445 -5.661985859327233 C 3.1984145886267026 -5.83543725400834 3.3222790764748367 -6.023315741878832 3.425576646000018 -6.222551580059333 C 3.3423180568482365 -6.189439871671773 3.25730273104522 -6.160928634359786 3.1709152105427734 -6.1371468303633065 C 3.3913517057184186 -6.401660330879448 3.552815237501738 -6.710161554311357 3.6445233679480076 -7.042048973733477 C 3.7325541479570843 -6.708801034623228 3.8942697352808686 -6.399564747460184 4.117743321945528 -6.137146830363301 C 4.0297225308982325 -6.161339270876491 3.9431437218482843 -6.190501294882841 3.858423445595773 -6.22449259709788 C 3.9637941605225837 -6.024800466692275 4.089180676781291 -5.8363304853033995 4.232651530627456 -5.661985859327233 C 4.1398709161849565 -5.68838369105146 4.05019592900413 -5.717110743221943 3.965955789531222 -5.748943422654095 C 4.07292682901568 -5.52657950228145 4.201524457237158 -5.315284107074261 4.34988895975565 -5.118112885126624 C 4.233427937442874 -5.153827598635877 4.121237152614926 -5.192647939406797 4.015645825718018 -5.234573907439392 C 4.139661105434602 -5.0048863002048645 4.2867746977878864 -4.788443313754062 4.4547038798371394 -4.588603437011262 C 4.32853777233165 -4.623541743705093 4.206641902310946 -4.661197474252887 4.091733693629028 -4.70506445932403 C 4.228268603746538 -4.455422907373432 4.388840005955892 -4.219701488583507 4.571164902149895 -4.001251681147229 C 4.275165424714413 -4.017044110472565 3.985078471945817 -4.090356994899537 3.7171174051896303 -4.217092775833551 L 3.7171174051896303 -3.851016962363765 L 3.571152923890967 -3.851016962363765 L 3.571152923890967 -4.216704572425842 C 3.3051109423647382 -4.08475404981208 3.0139025064806666 -4.011290103486779 2.717105426930712 -4.001251681147229 C 2.8994811812969696 -4.219193480469684 3.0601806898759145 -4.454392033074303 3.1969248388592937 -4.70351164569319 C 3.080463816546528 -4.661197474252887 2.9601207601566712 -4.623541743705093 2.8339546526511814 -4.587050623380428 C 3.0020819230454237 -4.787992337346807 3.149201190306701 -5.005614383437097 3.2730127067702934 -5.236514924477932 C 3.1674213798733857 -5.192647939406797 3.055230595045426 -5.153827598635877 2.938769572732661 -5.11811288512663 C 3.0869975450783107 -5.3153766603761206 3.215586771662284 -5.526658251072732 3.3227027429570692 -5.748943422654099 Z" fill="#c8e5ce" transform="matrix(1,0,0,1,0,0)" fill-rule="evenodd"></path></g><g clip-path="url(&quot;#SvgjsClipPath1008&quot;)"><path d=" M -0.5166289592870204 -3.345964328934082 L 3.284270605593865 -4.328895357253803 L 7.108074171529597 -10.427959095773215 L 7.716777114817647 -9.905049105588906 L 10.406250323427054 -14.476144231364865 L 11.23079436140142 -13.767673012295555 L 13.740917595649174 -18.018112123303702 L 16.688157866977512 -13.19390837570134 L 17.36091437253757 -14.098810519071511 L 19.76777550033468 -10.01141683930123 L 20.27243993035666 -10.706300939100718 L 24.26705299568443 -4.3114262039068905 L 27.9996287608085 -3.344799718710954 Z M 18.98011078609268 -10.288594072405608 L 17.304236675012007 -13.136066067952669 L 16.845380247099733 -12.499800682717272 L 17.049187036147067 -11.441558193301965 L 17.34266881237523 -11.907402282553017 L 17.214949891238895 -10.709406566362393 L 17.803854460733774 -11.59528674275481 L 18.979722582684964 -10.286653055367061 Z M 16.07402007598153 -13.172168984869625 L 13.749458070618777 -16.97656238041989 L 11.381417283592594 -12.96409195833749 L 12.584847847491144 -13.317357059352869 L 11.487008610489493 -12.568512685881803 L 11.917137986231298 -10.938058373503118 L 12.938112948506522 -11.56228945309953 L 12.702473480027033 -11.191166995329525 L 14.724236827376602 -7.969078711343075 L 14.174929005468073 -10.903896473624707 L 14.837592222427695 -10.461344588836209 L 14.415226914840073 -12.721464828519231 L 15.1916337302585 -12.030074559389128 L 14.734330115977052 -14.09531668840213 L 16.07790211005863 -13.170616171238787 Z M 8.130990150843362 -9.55023119094269 L 10.358889507686524 -7.6360001875285715 L 10.44856449486735 -8.780423833455323 L 11.108510287973003 -8.552548433130017 L 9.989319863547351 -9.783929642383633 L 11.088711914179829 -9.311486095201525 L 10.558814262656748 -10.340225125630933 L 10.971086281643942 -12.179144667949465 L 10.554544025171952 -13.67217497399909 L 8.130990150843362 -9.55023119094269 Z M 4.271471871398385 -4.89644873932467 L 6.045173241221761 -6.46090847239279 L 6.045173241221761 -5.701970810321281 L 7.105356747675618 -7.608049542173507 L 7.694261317170485 -6.831642726755087 L 7.243557160820097 -9.636412347454135 L 4.271471871398385 -4.89644873932467 Z M 18.83531091501714 -7.405795566757009 L 19.914904591856455 -7.844077214060707 L 20.81786571818808 -6.46090847239279 L 21.269346281353897 -7.23731528781121 L 22.988699174097988 -5.345600082044227 L 20.23439599640114 -9.755202590213152 Z" fill="#c8e5ce" transform="matrix(1,0,0,1,0,0)" fill-rule="evenodd"></path></g><g clip-path="url(&quot;#SvgjsClipPath1008&quot;)"><path d=" M 26.391302042669217 -2.9142821395614398 L 11.19042120699965 -2.9142821395614398 L 13.14308434777698 -1.5532409921329489 L 9.417108040583976 -1.1157357516446638 L 16.188928284663454 -0.6200000000000045 L 14.818570255449936 -1.8292536150141956 L 26.391302042669217 -2.9142821395614398 Z" fill="#c8e5ce" transform="matrix(1,0,0,1,0,0)" fill-rule="evenodd"></path></g><g clip-path="url(&quot;#SvgjsClipPath1008&quot;)"><path d=" M 10.435753782412945 -2.9142821395614398 L 11.796406726433728 -1.9659012145278396 L 1.0901449452214034 -2.9142821395614398 L 10.435753782412945 -2.9142821395614398 Z" fill="#c8e5ce" transform="matrix(1,0,0,1,0,0)" fill-rule="evenodd"></path></g></g></g><defs><clipPath id="SvgjsClipPath1018"><path d=" M -0.5166289592870204 -18.01927673352683 h 28.514704906464665 v 17.39927673352683 h -28.514704906464665 Z"></path></clipPath><clipPath id="SvgjsClipPath1008"><path d=" M -0.5166289592870204 -18.01927673352683 L 27.998075947177647 -18.01927673352683 L 27.998075947177647 -0.620000000000001 L -0.5166289592870204 -0.620000000000001 Z"></path></clipPath></defs></svg>